<svg xmlns="http://www.w3.org/2000/svg" xmlns:xlink="http://www.w3.org/1999/xlink" width="32" height="25.118" viewBox="0 0 32 25.118">
  <defs>
    <clipPath id="clip-path">
      <rect id="Rectangle_900" data-name="Rectangle 900" width="32" height="25.118" fill="none"/>
    </clipPath>
  </defs>
  <g id="Group_981" data-name="Group 981" clip-path="url(#clip-path)">
    <path id="Path_1181" data-name="Path 1181" d="M31.528,5.576a2.4,2.4,0,0,0-1.951-.987H6.964l-.922-2.9A2.411,2.411,0,0,0,3.735,0h-2.7a1.037,1.037,0,0,0,0,2.074h2.7a.344.344,0,0,1,.33.241l1.151,3.62h0L8.645,16.883v2.1a2.423,2.423,0,0,0,2.42,2.42h.817a2.084,2.084,0,1,0,2.552,0h7.641a2.084,2.084,0,1,0,2.552,0H27.4a1.037,1.037,0,1,0,0-2.074H11.064a.347.347,0,0,1-.346-.346V17.924H24.885a5.166,5.166,0,0,0,4.949-3.636l2.054-6.556a2.4,2.4,0,0,0-.359-2.156M29.908,7.112l-2.054,6.555a3.1,3.1,0,0,1-2.969,2.182H10.495L7.617,6.663h21.96a.345.345,0,0,1,.331.449" transform="translate(0 0)" fill="#2c576d"/>
  </g>
</svg>